HIERARCHY
ROOT Hips
{
	OFFSET	0.00	0.00	0.00
	CHANNELS 6 Xposition Yposition Zposition Zrotation Xrotation Yrotation
	JOINT Spine
	{
		OFFSET	 0.00	0.01	 0.00
		CHANNELS 3 Zrotation Xrotation Yrotation
		JOINT Spine1
		{
			OFFSET	 0.00	 2.45913012437421	 0.00
			CHANNELS 3 Zrotation Xrotation Yrotation
            JOINT Neck
            {
                OFFSET	 0.00	 2.48462964506057	 0.00
                CHANNELS 3 Zrotation Xrotation Yrotation
                JOINT Head
                {
                    OFFSET	 0.00	 0.927524780924562	 0.00
                    CHANNELS 3 Zrotation Xrotation Yrotation
                    End Site 
                    {
                        OFFSET	 0.00	 1.14999962169752	 0.00
                    }
                }
            }
			JOINT LeftShoulder
			{
				OFFSET	 0.00	 2.48462964506057	 0.00
				CHANNELS 3 Zrotation Xrotation Yrotation
				JOINT LeftUpArm
				{
					OFFSET	 0.00	 1.24881979654096	 0.00
					CHANNELS 3 Zrotation Xrotation Yrotation
					JOINT LeftForeArm
					{
						OFFSET	 0.00	2.59758046908119	 0.00
						CHANNELS 3 Zrotation Xrotation Yrotation
						JOINT LeftHand
						{
							OFFSET	 0.00	2.45542024364365	 0.00
							CHANNELS 3 Zrotation Xrotation Yrotation
							JOINT LeftHandThumb 
							{
								OFFSET	 0.00	0.00	 0.00
								CHANNELS 3 Zrotation Xrotation Yrotation
								End Site
								{
									OFFSET	 0.00	0.00	1.00000003353624
								}
							}
							JOINT L_Wrist_End 
							{
								OFFSET	 0.00	0.99999967115358	 0.00
								CHANNELS 3 Zrotation Xrotation Yrotation
								End Site 
								{
									OFFSET	 0.00	 0.00	 0.00
								}
							}
						}
					}
				}
			}
			JOINT RightShoulder
			{
				OFFSET	 0.00	 2.48462964506057	 0.00
				CHANNELS 3 Zrotation Xrotation Yrotation
				JOINT RightUpArm
				{
					OFFSET	 0.00	 1.24881979654096	 0.00
					CHANNELS 3 Zrotation Xrotation Yrotation
					JOINT RightForeArm
					{
						OFFSET	 0.00	2.59758046908119	 0.00
						CHANNELS 3 Zrotation Xrotation Yrotation
						JOINT RightHand
						{
							OFFSET	 0.00	2.45542024364365	 0.00
							CHANNELS 3 Zrotation Xrotation Yrotation
							JOINT RightHandThumb 
							{
								OFFSET	 0.00	0.00	 0.00
								CHANNELS 3 Zrotation Xrotation Yrotation
								End Site
								{
									OFFSET	 0.00	0.00	1.00000003353624
								}
							}
							JOINT R_Wrist_End 
							{
								OFFSET	 0.00	0.99999967115358	 0.00
								CHANNELS 3 Zrotation Xrotation Yrotation
								End Site 
								{
									OFFSET	 0.00	 0.00	 0.00
								}
							}
						}
					}
				}
			}
		}
	}
	JOINT LeftUpLeg
	{
		OFFSET	 1.2719394002717	 0.00	 0.00
		CHANNELS 3 Zrotation Xrotation Yrotation
		JOINT LeftLowLeg
		{
			OFFSET	 0.00	-4.3429100912261	 0.00
			CHANNELS 3 Zrotation Xrotation Yrotation
			JOINT LeftFoot
			{
				OFFSET	 0.00	-4.48767017425826	 0.00
				CHANNELS 3 Zrotation Xrotation Yrotation
				JOINT LeftToeBase
                {
                    OFFSET	 0.00	0.00	 1.51507020887566
                    CHANNELS 3 Zrotation Xrotation Yrotation
                    End Site 
                    {
                        OFFSET	 0.00	0.00	 0.75000010571191
                    }
                }
			}
		}
	}
	JOINT RightUpLeg
	{
		OFFSET	 -1.2719393604653	 0.00	 0.00
		CHANNELS 3 Zrotation Xrotation Yrotation
		JOINT RightLowLeg
		{
			OFFSET	 0.00	-4.3429100912261	 0.00
			CHANNELS 3 Zrotation Xrotation Yrotation
			JOINT RightFoot
			{
				OFFSET	 0.00	-4.48767017425826	 0.00
				CHANNELS 3 Zrotation Xrotation Yrotation
				JOINT RightToeBase
                {
                    OFFSET	 0.00	0.00	 1.51507020887566
                    CHANNELS 3 Zrotation Xrotation Yrotation
                    End Site 
                    {
                        OFFSET	 0.00	0.00	 0.749999965609858
                    }
                }   
			}
		}
	}
}
MOTION 
Frames:	15 
Frame Time: 0.02 
 1.5151499938964843 -2.131369934082031 9.334000244140626 -164.719 70.1544 888.143 6.41344 -28.833 -0.864837 -0.564723 7.39001 1.6866 7.84062 35.0122 0.653997 -45.7625 -77.4594 326.838 -119.855896 0.108113 9.92886 -44.9672 6.06914 25.122 0.0 18.992 0.0 5.23673 -10.6606 19.1592 0.0 0.0 0.0 0.0 0.0 0.0 120.3118 -4.51587 -2.17937 46.1705 0.129851 -383.29 0.0 18.7229 0.0 -1.59002 -6.97151 -5.76002 0.0 0.0 0.0 0.0 0.0 0.0 1.39067 -15.8213 -27.6225 0.0 6.13175 0.0 -0.708788 -5.3064003 21.6607 0.0 -10.20138 0.0 9.29746 -13.5639 387.565 0.0 3.63682 0.0 2.93522 2.0352 -29.6474 0.0 -18.096981 0.0 
  1.5153900146484376 -2.1318400573730467 9.33385986328125 -164.71 70.1478 888.124 6.41815 -28.8381 -0.851152 -0.577117 7.38229 1.69791 7.8623 35.0147 0.619753 -45.7017 -77.4378 326.9 -119.8638 0.10359 9.92938 -44.9443 6.07252 25.1284 0.0 18.9644 0.0 5.19564 -10.5407 19.1589 0.0 0.0 0.0 0.0 0.0 0.0 120.3109 -4.50895 -2.18509 46.1822 0.117097 -383.264 0.0 18.7227 0.0 -1.58254 -6.95957 -5.70095 0.0 0.0 0.0 0.0 0.0 0.0 1.39906 -15.8153 -27.6356 0.0 6.11704 0.0 -0.701764 -5.3143997 21.6942 0.0 -10.25766 0.0 9.30289 -13.5656 387.589 0.0 3.63616 0.0 2.94212 2.0328999 -29.6588 0.0 -18.06624 0.0 
  1.516179962158203 -2.133650054931641 9.333579711914062 -164.763 70.1192 888.138 6.42775 -28.8831 -0.80709 -0.632639 7.38234 1.7453 7.88083 35.0589 0.610834 -45.6366 -77.4305 326.956 -119.8462 0.0988722 9.93405 -44.9243 6.0739 25.1388 0.0 19.0025 0.0 5.18833 -10.6159 19.2121 0.0 0.0 0.0 0.0 0.0 0.0 120.3245 -4.51763 -2.183 46.2028 0.116968 -383.272 0.0 18.6933 0.0 -1.55514 -6.9783 -5.77058 0.0 0.0 0.0 0.0 0.0 0.0 1.40097 -15.8111 -27.6219 0.0 6.08436 0.0 -0.679405 -5.3066006 21.722 0.0 -10.255119 0.0 9.29856 -13.5835 387.619 0.0 3.63273 0.0 2.91594 2.0368996 -29.6673 0.0 -18.08112 0.0 
  1.5171400451660155 -2.1366900634765624 9.3335302734375 -164.699 70.1116 888.114 6.43903 -28.9477 -0.817835 -0.659553 7.42657 1.7207 7.87413 35.0774 0.623016 -45.5527 -77.4164 327.035 -119.829 0.0766209 9.94874 -44.9268 6.09526 25.1341 0.0 18.997 0.0 5.16445 -10.6161 19.1393 0.0 0.0 0.0 0.0 0.0 0.0 120.3216 -4.50885 -2.20828 46.2169 0.127818 -383.251 0.0 18.6859 0.0 -1.53283 -6.99692 -5.77497 0.0 0.0 0.0 0.0 0.0 0.0 1.41279 -15.7915 -27.6421 0.0 6.05771 0.0 -0.661591 -5.308201 21.7201 0.0 -10.18303 0.0 9.29943 -13.5494 387.534 0.0 3.59392 0.0 2.88316 2.0622997 -29.6435 0.0 -18.09669 0.0 
  1.5171000671386718 -2.135899963378906 9.333309936523438 -164.783 70.113 888.135 6.43405 -28.9203 -0.784666 -0.680236 7.39827 1.76684 7.87985 35.1028 0.630035 -45.5527 -77.4261 327.029 -119.8339 0.0815764 9.94317 -44.8987 6.08733 25.1513 0.0 19.0046 0.0 5.16756 -10.6612 19.1243 0.0 0.0 0.0 0.0 0.0 0.0 120.3349 -4.50205 -2.20328 46.2171 0.120999 -383.251 0.0 18.6905 0.0 -1.56537 -6.99164 -6.02357 0.0 0.0 0.0 0.0 0.0 0.0 1.40353 -15.7852 -27.5751 0.0 6.04521 0.0 -0.670398 -5.315399 21.7137 0.0 -10.167749 0.0 9.29515 -13.5767 387.63 0.0 3.63521 0.0 2.90226 2.0274 -29.6617 0.0 -18.07538 0.0 
  1.51822998046875 -2.136679992675781 9.333140258789063 -164.761 70.0895 888.121 6.44892 -28.9345 -0.766862 -0.727193 7.3637 1.7641 7.89595 35.1522 0.642773 -45.4292 -77.4292 327.166 -119.8339 0.0705832 9.9535 -44.8678 6.07856 25.1091 0.0 18.9851 0.0 5.15556 -10.6419 19.1092 0.0 0.0 0.0 0.0 0.0 0.0 120.3411 -4.5025 -2.22162 46.2498 0.138177 -383.221 0.0 18.6405 0.0 -1.57914 -6.97716 -6.11912 0.0 0.0 0.0 0.0 0.0 0.0 1.40651 -15.8016 -27.6196 0.0 6.04513 0.0 -0.66573 -5.3248005 21.7443 0.0 -10.17149 0.0 9.30459 -13.6002 387.636 0.0 3.65469 0.0 2.90398 2.0142002 -29.6741 0.0 -18.07684 0.0 
  1.5188800048828126 -2.1380799865722655 9.333060302734374 -164.763 70.0813 888.125 6.45302 -28.9594 -0.752918 -0.758735 7.36593 1.77707 7.93541 35.1714 0.611296 -45.3167 -77.4218 327.312 -119.814896 0.083196 9.98474 -44.8706 6.07817 25.042 0.0 18.9843 0.0 5.15405 -10.6628 19.0112 0.0 0.0 0.0 0.0 0.0 0.0 120.3457 -4.53077 -2.20969 46.2639 0.144497 -383.271 0.0 18.6339 0.0 -1.60782 -6.97602 -6.12066 0.0 0.0 0.0 0.0 0.0 0.0 1.40738 -15.7948 -27.6097 0.0 6.02998 0.0 -0.658986 -5.322201 21.7329 0.0 -10.173759 0.0 9.30565 -13.6045 387.654 0.0 3.66672 0.0 2.89167 2.0088997 -29.6978 0.0 -18.08628 0.0 
  1.5194400024414063 -2.1391600036621092 9.333040161132812 -164.757 70.0704 888.122 6.4627 -28.9815 -0.743583 -0.785712 7.36144 1.77528 7.97003 35.1859 0.577782 -45.2477 -77.4139 327.395 -119.8179 0.0749498 10.0133 -44.8456 6.0956 25.043 0.0 18.9151 0.0 5.13983 -10.4629 19.0649 0.0 0.0 0.0 0.0 0.0 0.0 120.3628 -4.52815 -2.23331 46.2584 0.149449 -383.26 0.0 18.6245 0.0 -1.55696 -6.98554 -5.78322 0.0 0.0 0.0 0.0 0.0 0.0 1.41011 -15.7891 -27.6522 0.0 6.01357 0.0 -0.660093 -5.322901 21.7753 0.0 -10.238359 0.0 9.30457 -13.6045 387.669 0.0 3.65962 0.0 2.88229 2.0108995 -29.7161 0.0 -18.06732 0.0 
  1.5208399963378907 -2.14 9.332919921875 -164.752 70.0608 888.118 6.48069 -28.9943 -0.720258 -0.814585 7.35536 1.77938 7.99754 35.1898 0.544436 -45.1678 -77.3966 327.466 -119.8011 0.0861172 10.0038 -44.8656 6.07559 25.0215 0.0 18.8958 0.0 5.16959 -10.4996 18.9896 0.0 0.0 0.0 0.0 0.0 0.0 120.3496 -4.55795 -2.23556 46.2916 0.154876 -383.256 0.0 18.6283 0.0 -1.61386 -6.96505 -5.83686 0.0 0.0 0.0 0.0 0.0 0.0 1.40572 -15.7887 -27.6619 0.0 6.00626 0.0 -0.625362 -5.314699 21.7953 0.0 -10.16282 0.0 9.30078 -13.6094 387.661 0.0 3.66306 0.0 2.89924 1.9963999 -29.7054 0.0 -18.06111 0.0 
  1.5214300537109375 -2.1408799743652343 9.332949829101562 -164.742 70.0572 888.117 6.48593 -29.0048 -0.713264 -0.836132 7.34712 1.77961 8.02639 35.2007 0.502878 -45.1669 -77.3841 327.445 -119.7944 0.0879428 10.0128 -44.8619 6.06705 25.0199 0.0 18.8942 0.0 5.17742 -10.5132 19.0022 0.0 0.0 0.0 0.0 0.0 0.0 120.3654 -4.55888 -2.23507 46.2882 0.132221 -383.225 0.0 18.6465 0.0 -1.59759 -6.96526 -5.81211 0.0 0.0 0.0 0.0 0.0 0.0 1.40351 -15.7844 -27.6861 0.0 6.00014 0.0 -0.618401 -5.309 21.8154 0.0 -10.17919 0.0 9.29951 -13.6074 387.687 0.0 3.66565 0.0 2.90172 1.9891005 -29.7361 0.0 -18.06897 0.0 
  1.522169952392578 -2.1415199279785155 9.33291015625 -164.733 70.0554 888.111 6.48124 -29.0037 -0.714891 -0.845565 7.33169 1.78198 8.07305 35.2048 0.436034 -45.1831 -77.3715 327.43 -119.7651 0.0882672 10.0099 -44.8998 6.0392 24.9768 0.0 18.9305 0.0 5.21061 -10.6383 19.0267 0.0 0.0 0.0 0.0 0.0 0.0 120.3757 -4.56949 -2.23889 46.2842 0.12996 -383.251 0.0 18.6553 0.0 -1.60469 -6.95893 -5.73035 0.0 0.0 0.0 0.0 0.0 0.0 1.4027 -15.7826 -27.6614 0.0 6.00042 0.0 -0.604493 -5.308399 21.7952 0.0 -10.1869 0.0 9.30095 -13.61 387.69 0.0 3.67861 0.0 2.89899 1.9860001 -29.7414 0.0 -18.082489 0.0 
  1.5227499389648438 -2.1431500244140627 9.332899780273438 -164.749 70.0493 888.095 6.48511 -29.0255 -0.696327 -0.850412 7.33301 1.80595 8.11284 35.2143 0.368988 -45.2076 -77.3496 327.396 -119.751 0.0815433 10.0125 -44.916 6.02309 24.9434 0.0 18.9406 0.0 5.21862 -10.6366 19.0354 0.0 0.0 0.0 0.0 0.0 0.0 120.3781 -4.58116 -2.24232 46.2872 0.113123 -383.257 0.0 18.6855 0.0 -1.6012 -7.00599 -5.72001 0.0 0.0 0.0 0.0 0.0 0.0 1.41033 -15.7574 -27.6716 0.0 5.96832 0.0 -0.608732 -5.3164997 21.8393 0.0 -10.21838 0.0 9.30452 -13.609 387.746 0.0 3.68533 0.0 2.90036 1.9789 -29.7664 0.0 -18.0633 0.0 
  1.5233700561523438 -2.144969940185547 9.332860107421874 -164.777 70.0452 888.087 6.48353 -29.0593 -0.683365 -0.850472 7.35975 1.83357 8.12895 35.2131 0.3359 -45.2183 -77.3352 327.376 -119.7441 0.0785555 10.0087 -44.9197 6.00521 24.9065 0.0 18.9637 0.0 5.19053 -10.6351 19.0423 0.0 0.0 0.0 0.0 0.0 0.0 120.3794 -4.58602 -2.24787 46.3031 0.122176 -383.175 0.0 18.66 0.0 -1.53694 -7.00244 -5.67417 0.0 0.0 0.0 0.0 0.0 0.0 1.41164 -15.7383 -27.5941 0.0 5.94996 0.0 -0.585274 -5.3143005 21.8161 0.0 -10.15676 0.0 9.30173 -13.6026 387.776 0.0 3.6839 0.0 2.89255 1.9817 -29.7691 0.0 -18.06898 0.0 
  1.5244500732421875 -2.146970062255859 9.332849731445313 -164.81 70.0322 888.077 6.47494 -29.1101 -0.679589 -0.831133 7.40003 1.86496 8.13661 35.2058 0.307151 -45.2025 -77.3113 327.389 -119.7353 0.0790802 9.98578 -44.9475 5.97092 24.888 0.0 18.9745 0.0 5.24519 -10.627 18.9993 0.0 0.0 0.0 0.0 0.0 0.0 120.3734 -4.58924 -2.25205 46.3094 0.122806 -383.152 0.0 18.6576 0.0 -1.52583 -7.03171 -5.77133 0.0 0.0 0.0 0.0 0.0 0.0 1.41543 -15.7116 -27.5817 0.0 5.90317 0.0 -0.545082 -5.2915 21.8741 0.0 -10.173759 0.0 9.29991 -13.6055 387.811 0.0 3.68788 0.0 2.87888 1.9884996 -29.7748 0.0 -18.0784 0.0 
  1.5250799560546875 -2.1490899658203126 9.332899780273438 -164.854 70.0275 888.074 6.44915 -29.1625 -0.688049 -0.79941 7.46177 1.90731 8.13598 35.1852 0.296615 -45.1589 -77.2949 327.421 -119.7342 0.0849366 9.94377 -44.9711 5.93355 24.8571 0.0 18.9795 0.0 5.25955 -10.6385 18.9901 0.0 0.0 0.0 0.0 0.0 0.0 120.365 -4.58846 -2.23941 46.3185 0.123136 -383.124 0.0 18.6395 0.0 -1.47285 -7.06235 -5.60002 0.0 0.0 0.0 0.0 0.0 0.0 1.41832 -15.6857 -27.5407 0.0 5.88239 0.0 -0.529437 -5.2915 21.875 0.0 -10.156549 0.0 9.29303 -13.5978 387.857 0.0 3.68327 0.0 2.87334 1.9907999 -29.7805 0.0 -18.07736 0.0 
